<svg xmlns="http://www.w3.org/2000/svg" width="40" height="40" viewBox="0 0 40 40"><defs><style>.a{fill:#fff;}.b{fill:#003057;}</style></defs><g transform="translate(-1235.857 -9100.057)"><circle class="a" cx="20" cy="20" r="20" transform="translate(1235.857 9100.057)"/><g transform="translate(1236.503 9078.056)"><path class="b" d="M30.235,36.5a2.853,2.853,0,0,0-2.008-2.021C26.456,34,19.355,34,19.355,34s-7.1,0-8.873.478A2.853,2.853,0,0,0,8.475,36.5a32.125,32.125,0,0,0,0,11,2.853,2.853,0,0,0,2.008,2.021C12.253,50,19.355,50,19.355,50s7.1,0,8.873-.478A2.853,2.853,0,0,0,30.235,47.5a32.125,32.125,0,0,0,0-11Z" transform="translate(0 0)"/><path class="a" d="M78,76.653l6-3.411-6-3.411Z" transform="translate(-61 -31.242)"/></g></g></svg>