<svg xmlns="http://www.w3.org/2000/svg" width="40" height="40" viewBox="0 0 40 40"><defs><style>.a{fill:#fff;}</style></defs><path class="a" d="M-190.72-36.5a19.586,19.586,0,0,1,10.014,2.678,19.744,19.744,0,0,1,7.283,7.293A19.657,19.657,0,0,1-170.748-16.5a19.657,19.657,0,0,1-2.674,10.028A19.744,19.744,0,0,1-180.706.823,19.586,19.586,0,0,1-190.72,3.5,19.586,19.586,0,0,1-200.734.823a19.961,19.961,0,0,1-7.312-7.293,19.5,19.5,0,0,1-2.7-10.028,19.5,19.5,0,0,1,2.7-10.028,19.961,19.961,0,0,1,7.312-7.293A19.586,19.586,0,0,1-190.72-36.5Zm10.811,14.245a12.637,12.637,0,0,1-2.333.627,4.71,4.71,0,0,0,1.821-2.222,11.608,11.608,0,0,1-2.674.969,3.673,3.673,0,0,0-2.9-1.311,3.882,3.882,0,0,0-2.845,1.2,3.959,3.959,0,0,0-1.195,2.906,4.91,4.91,0,0,0,.114.912,11,11,0,0,1-4.637-1.225,11.928,11.928,0,0,1-3.727-3.048A4.115,4.115,0,0,0-198.8-21.4a4.227,4.227,0,0,0,.455,1.966,3.434,3.434,0,0,0,1.309,1.4,3.6,3.6,0,0,1-1.821-.456v.057a4,4,0,0,0,.91,2.564,3.852,3.852,0,0,0,2.276,1.425,5.511,5.511,0,0,1-1.081.114,3.108,3.108,0,0,1-.683-.114,3.8,3.8,0,0,0,1.366,1.994,4.065,4.065,0,0,0,2.39.855,7.843,7.843,0,0,1-5.007,1.709h-.967a11.27,11.27,0,0,0,6.2,1.823,10.983,10.983,0,0,0,6.145-1.709,11.322,11.322,0,0,0,3.983-4.387,11.915,11.915,0,0,0,1.366-5.47v-.513A8.329,8.329,0,0,0-179.909-22.254Z" transform="translate(210.748 36.499)"/></svg>