<svg xmlns="http://www.w3.org/2000/svg" width="40" height="40" viewBox="0 0 40 40"><defs><style>.a{fill:#fff;}.b{fill:#003057;}</style></defs><g transform="translate(-1183 -2031)"><circle class="a" cx="20" cy="20" r="20" transform="translate(1183 2031)"/><path class="b" d="M13,5.622c2.4,0,2.688.009,3.637.052a4.98,4.98,0,0,1,1.671.31,2.98,2.98,0,0,1,1.708,1.708,4.98,4.98,0,0,1,.31,1.671c.043.949.052,1.234.052,3.637s-.009,2.688-.052,3.637a4.98,4.98,0,0,1-.31,1.671,2.98,2.98,0,0,1-1.708,1.708,4.98,4.98,0,0,1-1.671.31c-.949.043-1.233.052-3.637.052s-2.688-.009-3.637-.052a4.98,4.98,0,0,1-1.671-.31,2.98,2.98,0,0,1-1.708-1.708,4.98,4.98,0,0,1-.31-1.671C5.631,15.688,5.622,15.4,5.622,13s.009-2.688.052-3.637a4.98,4.98,0,0,1,.31-1.671A2.98,2.98,0,0,1,7.692,5.984a4.98,4.98,0,0,1,1.671-.31c.949-.043,1.234-.052,3.637-.052M13,4c-2.444,0-2.751.01-3.711.054A6.606,6.606,0,0,0,7.1,4.472,4.6,4.6,0,0,0,4.473,7.1a6.606,6.606,0,0,0-.418,2.185C4.01,10.249,4,10.556,4,13s.01,2.751.054,3.711A6.606,6.606,0,0,0,4.473,18.9,4.6,4.6,0,0,0,7.1,21.528a6.606,6.606,0,0,0,2.185.418c.96.044,1.266.054,3.711.054s2.751-.01,3.711-.054a6.606,6.606,0,0,0,2.185-.418A4.6,4.6,0,0,0,21.528,18.9a6.606,6.606,0,0,0,.418-2.185C21.99,15.751,22,15.444,22,13s-.01-2.751-.054-3.711A6.606,6.606,0,0,0,21.528,7.1,4.6,4.6,0,0,0,18.9,4.473a6.606,6.606,0,0,0-2.185-.418C15.751,4.01,15.444,4,13,4Zm0,4.378A4.622,4.622,0,1,0,17.622,13,4.622,4.622,0,0,0,13,8.378ZM13,16a3,3,0,1,1,3-3A3,3,0,0,1,13,16Zm4.8-8.884a1.08,1.08,0,1,0,1.08,1.08,1.08,1.08,0,0,0-1.08-1.08Z" transform="translate(1190 2038)"/></g></svg>