<svg xmlns="http://www.w3.org/2000/svg" width="40" height="40" viewBox="0 0 40 40"><defs><style>.a{fill:#fff;}</style></defs><path class="a" d="M-94.609,3.444a19.449,19.449,0,0,1-10.014-2.7,19.947,19.947,0,0,1-7.283-7.312,19.607,19.607,0,0,1-2.674-10.014A19.607,19.607,0,0,1-111.906-26.6a19.73,19.73,0,0,1,7.283-7.283,19.607,19.607,0,0,1,10.014-2.674,19.607,19.607,0,0,1,10.014,2.674A19.947,19.947,0,0,1-77.283-26.6a19.449,19.449,0,0,1,2.7,10.014,19.449,19.449,0,0,1-2.7,10.014A20.168,20.168,0,0,1-84.595.741,19.449,19.449,0,0,1-94.609,3.444Zm-5.633-31.351a2.043,2.043,0,0,0-1.536.654,2.185,2.185,0,0,0-.626,1.565,2.089,2.089,0,0,0,.626,1.536,2.089,2.089,0,0,0,1.536.626,2.089,2.089,0,0,0,1.536-.626,2.089,2.089,0,0,0,.626-1.536,2.184,2.184,0,0,0-.626-1.565A2.043,2.043,0,0,0-100.242-27.907Zm1.764,5.69h-3.528V-9.984h3.528Zm1.707,12.233h3.528v-7.852a2.943,2.943,0,0,1,1.935-.853,1.8,1.8,0,0,1,.91.228.762.762,0,0,1,.427.4,1.263,1.263,0,0,1,.2.626v7.454H-86.3v-7.454a4.78,4.78,0,0,0-.654-2.361,4.247,4.247,0,0,0-1.735-1.735,5.4,5.4,0,0,0-2.447-.569,4.431,4.431,0,0,0-2.105.455v-.569h-3.528Z" transform="translate(114.58 36.556)"/></svg>