<svg xmlns="http://www.w3.org/2000/svg" width="40" height="40" viewBox="0 0 40 40">
  <path id="icon_Facebook" d="M-238.8,3.444A19.657,19.657,0,0,1-248.832.77a19.744,19.744,0,0,1-7.293-7.283A19.586,19.586,0,0,1-258.8-16.528a19.586,19.586,0,0,1,2.678-10.014,19.961,19.961,0,0,1,7.293-7.312,19.5,19.5,0,0,1,10.028-2.7,19.5,19.5,0,0,1,10.028,2.7,19.961,19.961,0,0,1,7.293,7.312A19.586,19.586,0,0,1-218.8-16.528a19.586,19.586,0,0,1-2.678,10.014A19.744,19.744,0,0,1-228.775.77,19.657,19.657,0,0,1-238.8,3.444Zm-5.185-19.289h2.963v8.99h3.7v-8.99h3.7v-3.7h-3.7v-1.878a1.4,1.4,0,0,1,.228-.8.634.634,0,0,1,.513-.341h2.963V-26.2h-2.963a4.117,4.117,0,0,0-3.134,1.422,4.862,4.862,0,0,0-1.311,3.414v1.821h-2.963Z" transform="translate(258.804 36.556)" fill="#fff"/>
</svg>
